<mxfile host="app.diagrams.net" modified="2020-07-30T00:16:56.734Z" agent="5.0 (Windows NT 10.0; Win64; x64) AppleWebKit/537.36 (KHTML, like Gecko) Chrome/81.0.4044.138 Safari/537.36 OPR/68.0.3618.197" etag="-l72dz2N0HGq3Z8wLw0Q" version="13.5.5" type="github">
  <diagram id="C5RBs43oDa-KdzZeNtuy" name="Page-1">
    <mxGraphModel dx="493" dy="885" grid="1" gridSize="10" guides="1" tooltips="1" connect="1" arrows="1" fold="1" page="1" pageScale="1" pageWidth="827" pageHeight="1169" math="0" shadow="0">
      <root>
        <mxCell id="WIyWlLk6GJQsqaUBKTNV-0" />
        <mxCell id="WIyWlLk6GJQsqaUBKTNV-1" parent="WIyWlLk6GJQsqaUBKTNV-0" />
        <mxCell id="1Zjkm3QWPO95KbElEyYc-10" style="edgeStyle=orthogonalEdgeStyle;rounded=0;orthogonalLoop=1;jettySize=auto;html=1;entryX=0.47;entryY=0.022;entryDx=0;entryDy=0;entryPerimeter=0;fontFamily=Times New Roman;fontSize=16;" edge="1" parent="WIyWlLk6GJQsqaUBKTNV-1" source="1Zjkm3QWPO95KbElEyYc-0" target="1Zjkm3QWPO95KbElEyYc-1">
          <mxGeometry relative="1" as="geometry" />
        </mxCell>
        <mxCell id="1Zjkm3QWPO95KbElEyYc-32" style="edgeStyle=orthogonalEdgeStyle;rounded=0;sketch=0;jumpStyle=none;orthogonalLoop=1;jettySize=auto;html=1;entryX=0.25;entryY=0;entryDx=0;entryDy=0;endArrow=classic;endFill=1;strokeColor=#000000;fontFamily=Times New Roman;fontSize=16;" edge="1" parent="WIyWlLk6GJQsqaUBKTNV-1" source="1Zjkm3QWPO95KbElEyYc-0" target="1Zjkm3QWPO95KbElEyYc-18">
          <mxGeometry relative="1" as="geometry" />
        </mxCell>
        <mxCell id="1Zjkm3QWPO95KbElEyYc-0" value="Cliente&lt;br style=&quot;font-size: 16px;&quot;&gt;" style="rounded=1;whiteSpace=wrap;html=1;strokeWidth=2;glass=0;sketch=0;labelBackgroundColor=none;labelBorderColor=none;fontFamily=Times New Roman;fontStyle=1;spacing=2;fontSize=16;" vertex="1" parent="WIyWlLk6GJQsqaUBKTNV-1">
          <mxGeometry x="380" y="350" width="120" height="30" as="geometry" />
        </mxCell>
        <mxCell id="1Zjkm3QWPO95KbElEyYc-9" value="" style="group" vertex="1" connectable="0" parent="WIyWlLk6GJQsqaUBKTNV-1">
          <mxGeometry x="550" y="520.0036363636364" width="200" height="102.63636363636363" as="geometry" />
        </mxCell>
        <mxCell id="1Zjkm3QWPO95KbElEyYc-1" value="&lt;b&gt;Director&lt;/b&gt;" style="rounded=0;whiteSpace=wrap;html=1;glass=0;labelBackgroundColor=none;sketch=0;strokeWidth=2;fontFamily=Times New Roman;fontSize=16;shadow=0;" vertex="1" parent="1Zjkm3QWPO95KbElEyYc-9">
          <mxGeometry width="200" height="28.64" as="geometry" />
        </mxCell>
        <mxCell id="1Zjkm3QWPO95KbElEyYc-3" value="&lt;font style=&quot;font-size: 15px&quot;&gt;+makeMilitareJets(buider)&lt;br&gt;+makeCargoAirplanes(buider)&lt;br&gt;+makeBusinessJets&lt;/font&gt;" style="rounded=0;html=1;glass=0;labelBackgroundColor=none;sketch=0;strokeWidth=2;fontFamily=Times New Roman;fontSize=16;shadow=0;align=left;" vertex="1" parent="1Zjkm3QWPO95KbElEyYc-9">
          <mxGeometry y="28.636363636363626" width="200" height="74" as="geometry" />
        </mxCell>
        <mxCell id="1Zjkm3QWPO95KbElEyYc-8" style="edgeStyle=orthogonalEdgeStyle;rounded=0;orthogonalLoop=1;jettySize=auto;html=1;exitX=0.5;exitY=1;exitDx=0;exitDy=0;fontFamily=Times New Roman;fontSize=16;" edge="1" parent="1Zjkm3QWPO95KbElEyYc-9" source="1Zjkm3QWPO95KbElEyYc-1" target="1Zjkm3QWPO95KbElEyYc-1">
          <mxGeometry relative="1" as="geometry" />
        </mxCell>
        <mxCell id="1Zjkm3QWPO95KbElEyYc-14" value="" style="group;labelBorderColor=none;gradientDirection=north;rounded=0;glass=0;shadow=0;sketch=0;arcSize=0;" vertex="1" connectable="0" parent="WIyWlLk6GJQsqaUBKTNV-1">
          <mxGeometry x="240" y="486.36" width="180" height="183.64" as="geometry" />
        </mxCell>
        <mxCell id="1Zjkm3QWPO95KbElEyYc-11" value="&amp;lt;&amp;lt;interface&amp;gt;&amp;gt;&lt;br&gt;&lt;b&gt;Builder&lt;/b&gt;" style="rounded=0;whiteSpace=wrap;html=1;shadow=0;glass=0;sketch=0;strokeWidth=2;fontFamily=Times New Roman;fontSize=16;align=center;" vertex="1" parent="1Zjkm3QWPO95KbElEyYc-14">
          <mxGeometry width="180" height="57.943821176470585" as="geometry" />
        </mxCell>
        <mxCell id="1Zjkm3QWPO95KbElEyYc-13" value="+setSeats(number)&lt;br&gt;+setEngine(engine)&lt;br&gt;+setRadar()&lt;br&gt;+setCargoMax(cargoMax)&lt;br&gt;+getResult():AirPlane" style="rounded=0;whiteSpace=wrap;html=1;shadow=0;glass=0;sketch=0;strokeWidth=2;fontFamily=Times New Roman;fontSize=16;align=left;" vertex="1" parent="1Zjkm3QWPO95KbElEyYc-14">
          <mxGeometry y="59.41294117647058" width="180" height="124.2270588235294" as="geometry" />
        </mxCell>
        <mxCell id="1Zjkm3QWPO95KbElEyYc-15" style="edgeStyle=orthogonalEdgeStyle;rounded=0;orthogonalLoop=1;jettySize=auto;html=1;fontFamily=Times New Roman;fontSize=16;entryX=1;entryY=0.75;entryDx=0;entryDy=0;endArrow=classic;endFill=1;" edge="1" parent="WIyWlLk6GJQsqaUBKTNV-1" source="1Zjkm3QWPO95KbElEyYc-1" target="1Zjkm3QWPO95KbElEyYc-11">
          <mxGeometry relative="1" as="geometry">
            <mxPoint x="470" y="510" as="targetPoint" />
            <Array as="points">
              <mxPoint x="500" y="530" />
              <mxPoint x="500" y="527" />
              <mxPoint x="420" y="527" />
            </Array>
          </mxGeometry>
        </mxCell>
        <mxCell id="1Zjkm3QWPO95KbElEyYc-17" value="" style="group;labelBorderColor=none;gradientDirection=north;rounded=0;glass=0;shadow=0;sketch=0;arcSize=0;" vertex="1" connectable="0" parent="WIyWlLk6GJQsqaUBKTNV-1">
          <mxGeometry x="110" y="731" width="180" height="170" as="geometry" />
        </mxCell>
        <mxCell id="1Zjkm3QWPO95KbElEyYc-18" value="&lt;b&gt;AirPlane Builder&lt;/b&gt;" style="rounded=0;whiteSpace=wrap;html=1;shadow=0;glass=0;sketch=0;strokeWidth=2;fontFamily=Times New Roman;fontSize=16;align=center;" vertex="1" parent="1Zjkm3QWPO95KbElEyYc-17">
          <mxGeometry width="180" height="53.64" as="geometry" />
        </mxCell>
        <mxCell id="1Zjkm3QWPO95KbElEyYc-20" value="" style="group;labelBorderColor=none;gradientDirection=north;rounded=0;glass=0;shadow=0;sketch=0;arcSize=0;fillColor=#ffffff;" vertex="1" connectable="0" parent="WIyWlLk6GJQsqaUBKTNV-1">
          <mxGeometry x="370" y="731" width="180" height="210" as="geometry" />
        </mxCell>
        <mxCell id="1Zjkm3QWPO95KbElEyYc-21" value="&lt;b&gt;AirPlaneConfig&lt;/b&gt;" style="rounded=0;whiteSpace=wrap;html=1;shadow=0;glass=0;sketch=0;strokeWidth=2;fontFamily=Times New Roman;fontSize=16;align=center;" vertex="1" parent="1Zjkm3QWPO95KbElEyYc-20">
          <mxGeometry width="180" height="53.64" as="geometry" />
        </mxCell>
        <mxCell id="1Zjkm3QWPO95KbElEyYc-22" value="+setSeats(number)&lt;br&gt;+setEngine(engine)&lt;br&gt;+setRadar()&lt;br&gt;+setCargoMax(cargoMax)&lt;br&gt;+getResult():Config" style="rounded=0;whiteSpace=wrap;html=1;shadow=0;glass=0;sketch=0;strokeWidth=2;fontFamily=Times New Roman;fontSize=16;align=left;" vertex="1" parent="1Zjkm3QWPO95KbElEyYc-20">
          <mxGeometry y="90" width="180" height="120" as="geometry" />
        </mxCell>
        <mxCell id="1Zjkm3QWPO95KbElEyYc-25" value="-config : Config" style="rounded=0;whiteSpace=wrap;html=1;shadow=0;glass=0;sketch=0;strokeColor=#000000;strokeWidth=2;fillColor=none;gradientColor=none;fontFamily=Times New Roman;fontSize=16;align=left;" vertex="1" parent="1Zjkm3QWPO95KbElEyYc-20">
          <mxGeometry y="55" width="180" height="35" as="geometry" />
        </mxCell>
        <mxCell id="1Zjkm3QWPO95KbElEyYc-24" value="-airPlane: AirPlane" style="rounded=0;shadow=0;glass=0;sketch=0;strokeColor=#000000;strokeWidth=2;gradientColor=none;fontFamily=Times New Roman;fontSize=16;align=left;labelBackgroundColor=none;labelBorderColor=none;" vertex="1" parent="WIyWlLk6GJQsqaUBKTNV-1">
          <mxGeometry x="110" y="785" width="180" height="35" as="geometry" />
        </mxCell>
        <mxCell id="1Zjkm3QWPO95KbElEyYc-29" value="" style="edgeStyle=orthogonalEdgeStyle;rounded=0;orthogonalLoop=1;jettySize=auto;html=1;fontFamily=Times New Roman;fontSize=16;" edge="1" parent="WIyWlLk6GJQsqaUBKTNV-1" source="1Zjkm3QWPO95KbElEyYc-19" target="1Zjkm3QWPO95KbElEyYc-26">
          <mxGeometry relative="1" as="geometry" />
        </mxCell>
        <mxCell id="1Zjkm3QWPO95KbElEyYc-19" value="+setSeats(number)&lt;br&gt;+setEngine(engine)&lt;br&gt;+setRadar()&lt;br&gt;+setCargoMax(cargoMax)&lt;br&gt;+getResult():AirPlane" style="rounded=0;whiteSpace=wrap;html=1;shadow=0;glass=0;sketch=0;strokeWidth=2;fontFamily=Times New Roman;fontSize=16;align=left;" vertex="1" parent="WIyWlLk6GJQsqaUBKTNV-1">
          <mxGeometry x="110" y="821" width="180" height="115" as="geometry" />
        </mxCell>
        <mxCell id="1Zjkm3QWPO95KbElEyYc-26" value="&lt;b&gt;Airplane&amp;nbsp;&lt;/b&gt;" style="rounded=0;whiteSpace=wrap;html=1;shadow=0;glass=0;labelBackgroundColor=none;sketch=0;strokeColor=#000000;strokeWidth=2;fillColor=#ffffff;gradientColor=none;fontFamily=Times New Roman;fontSize=16;align=center;" vertex="1" parent="WIyWlLk6GJQsqaUBKTNV-1">
          <mxGeometry x="110" y="990" width="180" height="30" as="geometry" />
        </mxCell>
        <mxCell id="1Zjkm3QWPO95KbElEyYc-27" value="&lt;b&gt;Config&lt;/b&gt;" style="rounded=0;whiteSpace=wrap;html=1;shadow=0;glass=0;labelBackgroundColor=none;sketch=0;strokeColor=#000000;strokeWidth=2;fillColor=#ffffff;gradientColor=none;fontFamily=Times New Roman;fontSize=16;align=center;" vertex="1" parent="WIyWlLk6GJQsqaUBKTNV-1">
          <mxGeometry x="370" y="990" width="180" height="30" as="geometry" />
        </mxCell>
        <mxCell id="1Zjkm3QWPO95KbElEyYc-28" value="" style="edgeStyle=orthogonalEdgeStyle;rounded=0;orthogonalLoop=1;jettySize=auto;html=1;fontFamily=Times New Roman;fontSize=16;" edge="1" parent="WIyWlLk6GJQsqaUBKTNV-1" source="1Zjkm3QWPO95KbElEyYc-22" target="1Zjkm3QWPO95KbElEyYc-27">
          <mxGeometry relative="1" as="geometry" />
        </mxCell>
        <mxCell id="1Zjkm3QWPO95KbElEyYc-30" style="edgeStyle=orthogonalEdgeStyle;orthogonalLoop=1;jettySize=auto;html=1;fontFamily=Times New Roman;fontSize=16;rounded=0;jumpStyle=none;sketch=0;dashed=1;" edge="1" parent="WIyWlLk6GJQsqaUBKTNV-1" source="1Zjkm3QWPO95KbElEyYc-18" target="1Zjkm3QWPO95KbElEyYc-13">
          <mxGeometry relative="1" as="geometry" />
        </mxCell>
        <mxCell id="1Zjkm3QWPO95KbElEyYc-31" style="edgeStyle=orthogonalEdgeStyle;orthogonalLoop=1;jettySize=auto;html=1;fontFamily=Times New Roman;fontSize=16;rounded=0;jumpStyle=none;sketch=0;dashed=1;" edge="1" parent="WIyWlLk6GJQsqaUBKTNV-1" source="1Zjkm3QWPO95KbElEyYc-21" target="1Zjkm3QWPO95KbElEyYc-13">
          <mxGeometry relative="1" as="geometry" />
        </mxCell>
      </root>
    </mxGraphModel>
  </diagram>
</mxfile>
